<svg width="24" height="24" viewBox="0 0 24 24" fill="none" xmlns="http://www.w3.org/2000/svg">
<path d="M15.7404 17.7827C15.4357 17.916 15.2357 18.2207 15.2357 18.5492C15.2357 18.8349 15.3786 19.0967 15.6166 19.2491C15.7547 19.3395 15.9118 19.3871 16.0737 19.3871C16.188 19.3871 16.3022 19.3633 16.4117 19.3157C19.3398 18.0207 21.2347 15.1212 21.2347 11.9266C21.2347 8.73189 19.3398 5.8324 16.4117 4.53739C16.1546 4.42312 15.8547 4.44693 15.6214 4.59928C15.3833 4.7564 15.2405 5.01826 15.2405 5.30392C15.2405 5.63243 15.4357 5.93238 15.7452 6.07045C18.0638 7.09884 19.5636 9.39844 19.5636 11.9266C19.5636 14.4547 18.0638 16.7543 15.7452 17.7827H15.7404Z" fill="black"/>
<path d="M17.8449 11.9361C17.8449 13.6405 16.7594 15.0879 15.2406 15.6259V8.24625C16.7594 8.78425 17.8449 10.2364 17.8449 11.9408V11.9361Z" fill="black"/>
<path d="M12.3267 3.10913L6.11356 7.86543H3.19027C2.53324 7.86543 2 8.39867 2 9.05569V14.9356C2 15.5926 2.53324 16.1259 3.19027 16.1259H6.11356L12.3267 20.8822C12.6981 21.1678 13.2361 20.9012 13.2361 20.4346V3.56619C13.2361 3.09485 12.6981 2.83299 12.3267 3.11865V3.10913Z" fill="black"/>
</svg>
