<svg width="24" height="24" viewBox="0 0 24 24" fill="none" xmlns="http://www.w3.org/2000/svg">
<path d="M20.7651 12.1783C20.7651 13.4884 20.4222 14.7457 19.7979 15.8404L18.6505 14.6929C19.0198 13.9192 19.2176 13.0619 19.2176 12.1739C19.2176 9.8351 17.8372 7.71611 15.6919 6.76213C15.4105 6.63903 15.2303 6.35767 15.2303 6.05873C15.2303 5.79496 15.3577 5.55316 15.582 5.40809C15.8018 5.26741 16.0743 5.24103 16.3161 5.35094C19.0198 6.54671 20.7695 9.22402 20.7695 12.1739L20.7651 12.1783Z" fill="black"/>
<path d="M17.635 12.1871C17.635 12.6311 17.5559 13.0575 17.4064 13.4488L15.2303 11.2726V8.77557C16.6327 9.27235 17.635 10.6132 17.635 12.1871Z" fill="black"/>
<path d="M13.3794 4.44968V9.42182L9.96356 6.00595L12.5398 4.03203C12.8827 3.77266 13.3794 4.01445 13.3794 4.44968Z" fill="black"/>
<path d="M5.02667 8.42828L13.3795 16.7855V20.0256C13.3795 20.4608 12.8827 20.707 12.5398 20.4432L6.79835 16.0514H4.09906C3.49238 16.0514 3 15.559 3 14.9523V9.52734C3 8.92066 3.48798 8.42828 4.09906 8.42828H5.02227H5.02667Z" fill="black"/>
<path d="M20.7652 21.3576C20.5409 21.3576 20.3211 21.2741 20.1497 21.1026L3.5275 4.48043C3.18899 4.14192 3.18899 3.59239 3.5275 3.25388C3.86601 2.91537 4.41554 2.91537 4.75405 3.25388L21.3762 19.8761C21.7147 20.2146 21.7147 20.7641 21.3762 21.1026C21.2048 21.2741 20.985 21.3576 20.7608 21.3576H20.7652Z" fill="black"/>
</svg>
